# xmcd CD database file
#
# Track frame offsets:
#	150
#	21415
#	41443
#	59504
#	80059
#	102952
#	119237
#	137123
#	154166
#	171921
#	186064
#	214939
#
# Disc length: 3128 seconds
#
# Revision: 0
# Processed by: cddbd v1.5.2PL0 Copyright (c) Steve Scherf et al.
# Submitted via: CDex 1.51
#
DISCID=b30c360c
DTITLE=The Beards - Mephisto Potato Sauce
DYEAR=2007
DGENRE=Blues
TTITLE0=Martorei's Hour
TTITLE1=Biggest Corn Field - House In Flames
TTITLE2=Bloodless Rake
TTITLE3=Asphalt Road
TTITLE4=Mephisto Potatoes Sauce
TTITLE5=Slowly Wagon
TTITLE6=Whistle
TTITLE7=Chinin Is Your Medicine
TTITLE8=Umassa In The Distance
TTITLE9=The Farmer
TTITLE10=This Wheel's On Fire (Bonus Track)
TTITLE11=Million Dollar Bash (Bonus Track)
EXTD=YEAR: 2007
EXTT0=
EXTT1=
EXTT2=
EXTT3=
EXTT4=
EXTT5=
EXTT6=
EXTT7=
EXTT8=
EXTT9=
EXTT10=
EXTT11=
PLAYORDER=
